<svg width="50" height="40" viewBox="0 0 50 40" fill="none" xmlns="http://www.w3.org/2000/svg">
<path d="M45.0799 33.7943C41.6893 37.47 36.5587 39.3333 29.8331 39.3333L27.4164 39.3333L27.4164 32.5207L29.3594 32.1316C32.6703 31.4694 34.9734 30.1668 36.2059 28.2553C36.849 27.2254 37.2137 26.0463 37.2644 24.8333L29.8331 24.8333C29.1922 24.8333 28.5775 24.5786 28.1243 24.1254C27.6711 23.6722 27.4164 23.0575 27.4164 22.4166L27.4164 5.49992C27.4164 2.83434 29.5842 0.666586 32.2498 0.666586L46.7498 0.666588C47.3907 0.666588 48.0054 0.9212 48.4586 1.37441C48.9118 1.82763 49.1664 2.44231 49.1664 3.08326L49.1664 15.1666L49.1592 22.2208C49.1809 22.4891 49.6401 28.8449 45.0799 33.7943ZM5.66644 0.666584L20.1664 0.666585C20.8074 0.666585 21.4221 0.921197 21.8753 1.37441C22.3285 1.82762 22.5831 2.44231 22.5831 3.08325L22.5831 15.1666L22.5759 22.2208C22.5976 22.4891 23.0568 28.8449 18.4965 33.7943C15.1059 37.47 9.97535 39.3332 3.24977 39.3332L0.833103 39.3332L0.833104 32.5207L2.77611 32.1316C6.08694 31.4694 8.39002 30.1668 9.62252 28.2553C10.2656 27.2254 10.6303 26.0463 10.681 24.8332L3.24977 24.8332C2.60883 24.8332 1.99414 24.5786 1.54093 24.1254C1.08772 23.6722 0.833105 23.0575 0.833105 22.4166L0.833106 5.49992C0.833106 2.83433 3.00086 0.666584 5.66644 0.666584Z" fill="#FE8B75" fill-opacity="0.3"/>
</svg>
