<svg width="54" height="44" viewBox="0 0 54 44" fill="none" xmlns="http://www.w3.org/2000/svg">
<path d="M4.84251 6.77875C8.58384 2.72275 14.2452 0.666748 21.6665 0.666748H24.3332V8.18408L22.1892 8.61341C18.5358 9.34408 15.9945 10.7814 14.6345 12.8907C13.9249 14.0271 13.5224 15.3282 13.4665 16.6667H21.6665C22.3738 16.6667 23.052 16.9477 23.5521 17.4478C24.0522 17.9479 24.3332 18.6262 24.3332 19.3334V38.0001C24.3332 40.9414 21.9412 43.3334 18.9998 43.3334H2.99984C2.2926 43.3334 1.61432 43.0525 1.11422 42.5524C0.614125 42.0523 0.333174 41.374 0.333174 40.6667V27.3334L0.341174 19.5494C0.317174 19.2534 -0.189493 12.2401 4.84251 6.77875ZM48.3332 43.3334H32.3332C31.6259 43.3334 30.9477 43.0525 30.4476 42.5524C29.9475 42.0523 29.6665 41.374 29.6665 40.6667V27.3334L29.6745 19.5494C29.6505 19.2534 29.1438 12.2401 34.1758 6.77875C37.9172 2.72275 43.5785 0.666748 50.9998 0.666748H53.6665V8.18408L51.5225 8.61341C47.8692 9.34408 45.3278 10.7814 43.9678 12.8907C43.2582 14.0271 42.8558 15.3282 42.7998 16.6667H50.9998C51.7071 16.6667 52.3854 16.9477 52.8855 17.4478C53.3856 17.9479 53.6665 18.6262 53.6665 19.3334V38.0001C53.6665 40.9414 51.2745 43.3334 48.3332 43.3334Z" fill="#FE8B75" fill-opacity="0.3"/>
</svg>
